<svg width="24" height="24" viewBox="0 0 24 24" fill="none" xmlns="http://www.w3.org/2000/svg">
<path d="M19.8463 12.573H9.31931C9.04773 12.573 8.81463 12.3751 8.7637 12.1031L7.6129 5.92762C7.54613 5.5711 7.81432 5.24005 8.1685 5.24005H22.4331C22.8393 5.24005 23.1132 5.66486 22.9536 6.04685L20.3668 12.2223C20.2774 12.4353 20.0726 12.573 19.8463 12.573Z" fill="#D8D8D8"/>
<path d="M19.5487 16.8131H8.48873C8.21716 16.8131 7.98292 16.6151 7.93313 16.342L5.71752 4.36495C5.66773 4.09178 5.43349 3.89384 5.16192 3.89384H1.56579C1.25347 3.89384 1 3.63455 1 3.31507V1.57877C1 1.25929 1.25347 1 1.56579 1H7.5054C7.77698 1 8.01121 1.19794 8.061 1.47112L10.2766 13.4481C10.3275 13.7213 10.5606 13.9192 10.8322 13.9192H19.5487C19.861 13.9192 20.1145 14.1785 20.1145 14.498V16.2343C20.1145 16.5538 19.8622 16.8131 19.5487 16.8131Z" fill="#D8D8D8"/>
<path d="M9.3623 22.0012C10.5878 22.0012 11.5813 20.9849 11.5813 19.7312C11.5813 18.4776 10.5878 17.4613 9.3623 17.4613C8.13677 17.4613 7.14329 18.4776 7.14329 19.7312C7.14329 20.9849 8.13677 22.0012 9.3623 22.0012Z" fill="#D8D8D8"/>
<path d="M18.5348 22.0012C19.7603 22.0012 20.7538 20.9849 20.7538 19.7312C20.7538 18.4776 19.7603 17.4613 18.5348 17.4613C17.3093 17.4613 16.3158 18.4776 16.3158 19.7312C16.3158 20.9849 17.3093 22.0012 18.5348 22.0012Z" fill="#D8D8D8"/>
</svg>
