<svg width="24" height="24" viewBox="0 0 24 24" fill="none" xmlns="http://www.w3.org/2000/svg">
<path d="M5.32812 3.05263C4.97588 3.05263 4.63807 3.19126 4.389 3.43802C4.13993 3.68478 4 4.01945 4 4.36842V5.94737C4 6.29634 4.13993 6.63101 4.389 6.87777C4.63807 7.12453 4.97588 7.26316 5.32812 7.26316H6V19.3684C6 20.0664 6.27985 20.7357 6.778 21.2292C7.27614 21.7227 7.95177 22 8.65625 22H16.4844C17.1889 22 17.8645 21.7227 18.3626 21.2292C18.8608 20.7357 19 20.0664 19 19.3684V7.26316H19.6719C20.0241 7.26316 20.3619 7.12453 20.611 6.87777C20.8601 6.63101 21 6.29634 21 5.94737V4.36842C21 4.01945 20.8601 3.68478 20.611 3.43802C20.3619 3.19126 20.0241 3.05263 19.6719 3.05263H15.1562C15.1562 2.70366 15.0163 2.63214 14.7673 2.38539C14.5182 2.13863 14.1804 2 13.8281 2H11.1719C10.8196 2 10.4818 2.13863 10.2327 2.38539C9.98368 2.63214 9.84375 2.70366 9.84375 3.05263H5.32812ZM9.17969 8.57895C9.35581 8.57895 9.52471 8.64826 9.64925 8.77164C9.77379 8.89502 9.84375 9.06236 9.84375 9.23684V18.7105C9.84375 18.885 9.77379 19.0524 9.64925 19.1757C9.52471 19.2991 9.35581 19.3684 9.17969 19.3684C9.00357 19.3684 8.83466 19.2991 8.71012 19.1757C8.58559 19.0524 8.51562 18.885 8.51562 18.7105V9.23684C8.51562 9.06236 8.58559 8.89502 8.71012 8.77164C8.83466 8.64826 9.00357 8.57895 9.17969 8.57895ZM12.5 8.57895C12.6761 8.57895 12.845 8.64826 12.9696 8.77164C13.0941 8.89502 13.1641 9.06236 13.1641 9.23684V18.7105C13.1641 18.885 13.0941 19.0524 12.9696 19.1757C12.845 19.2991 12.6761 19.3684 12.5 19.3684C12.3239 19.3684 12.155 19.2991 12.0304 19.1757C11.9059 19.0524 11.8359 18.885 11.8359 18.7105V9.23684C11.8359 9.06236 11.9059 8.89502 12.0304 8.77164C12.155 8.64826 12.3239 8.57895 12.5 8.57895ZM16.4844 9.23684V18.7105C16.4844 18.885 16.4144 19.0524 16.2899 19.1757C16.1653 19.2991 15.9964 19.3684 15.8203 19.3684C15.6442 19.3684 15.4753 19.2991 15.3507 19.1757C15.2262 19.0524 15.1562 18.885 15.1562 18.7105V9.23684C15.1562 9.06236 15.2262 8.89502 15.3507 8.77164C15.4753 8.64826 15.6442 8.57895 15.8203 8.57895C15.9964 8.57895 16.1653 8.64826 16.2899 8.77164C16.4144 8.89502 16.4844 9.06236 16.4844 9.23684Z" fill="#D8D8D8"/>
</svg>
